<?xml version="1.0" standalone="no"?>
<!DOCTYPE svg PUBLIC "-//W3C//DTD SVG 20010904//EN"
 "http://www.w3.org/TR/2001/REC-SVG-20010904/DTD/svg10.dtd">
<svg version="1.0" xmlns="http://www.w3.org/2000/svg"
 width="1408.000000pt" height="768.000000pt" viewBox="0 0 1408.000000 768.000000"
 preserveAspectRatio="xMidYMid meet">

<g transform="translate(0.000000,768.000000) scale(0.100000,-0.100000)"
fill="#000000" stroke="none">
<path d="M6962 6363 c-6 -32 -23 -139 -37 -238 -37 -260 -25 -232 -103 -240
-37 -3 -112 -15 -166 -26 -80 -16 -101 -18 -108 -7 -4 7 -63 103 -130 213 -67
110 -123 202 -124 204 -7 8 -124 -54 -124 -66 0 -7 29 -132 65 -278 36 -145
65 -271 65 -280 0 -18 -1 -18 75 0 33 8 63 15 68 15 4 0 7 -29 7 -64 l0 -63
68 19 c218 60 456 85 663 68 130 -11 334 -48 411 -75 l38 -13 0 64 c0 72 -3
70 85 49 32 -8 60 -13 61 -12 4 4 144 581 141 583 -6 6 -129 55 -131 52 -1 -2
-58 -97 -126 -211 -68 -114 -127 -210 -130 -212 -4 -2 -49 4 -101 15 -52 10
-126 22 -164 25 l-70 7 -39 252 c-21 138 -41 257 -43 264 -4 8 -28 12 -73 12
l-67 0 -11 -57z"/>
<path d="M5738 5733 c-129 -131 -178 -248 -178 -424 0 -113 7 -159 26 -159 20
0 127 104 168 164 79 114 112 274 86 424 -6 39 -15 72 -19 72 -3 0 -41 -35
-83 -77z"/>
<path d="M8255 5798 c-12 -34 -22 -189 -15 -240 21 -149 92 -278 201 -367 62
-50 64 -50 73 -28 5 12 9 78 10 147 1 142 -12 193 -72 295 -59 99 -186 223
-197 193z"/>
<path d="M6800 5514 c-114 -16 -274 -53 -331 -77 -32 -13 -39 -23 -58 -78 -26
-77 -26 -82 -1 -69 38 20 272 80 377 95 122 18 381 21 493 5 92 -12 307 -65
372 -91 26 -10 48 -17 48 -14 0 2 -12 35 -26 74 l-26 70 -61 20 c-229 73 -537
99 -787 65z"/>
<path d="M6200 5451 c-199 -65 -319 -160 -391 -306 -40 -83 -58 -145 -43 -145
40 1 156 35 219 64 127 59 241 194 275 326 6 25 13 53 16 63 7 21 -5 21 -76
-2z"/>
<path d="M7810 5449 c0 -31 56 -165 89 -212 37 -54 104 -117 158 -151 50 -30
169 -71 231 -79 43 -5 44 -5 37 21 -3 15 -25 65 -47 112 -71 149 -194 247
-387 309 -79 26 -81 26 -81 0z"/>
<path d="M5287 5363 c-142 -195 -163 -405 -61 -616 10 -20 22 -36 28 -34 19 6
86 113 117 187 56 133 50 316 -16 458 -13 28 -26 52 -29 52 -2 0 -20 -21 -39
-47z"/>
<path d="M8743 5395 c-23 -44 -61 -174 -68 -231 -15 -136 41 -316 129 -419
l35 -40 27 59 c14 32 32 81 40 109 16 61 18 193 3 257 -14 61 -83 200 -123
246 -31 36 -34 37 -43 19z"/>
<path d="M5589 5023 c-85 -89 -125 -140 -196 -248 -196 -299 -301 -609 -322
-953 -23 -371 47 -726 205 -1044 212 -428 539 -757 948 -958 78 -38 175 -80
216 -95 82 -29 334 -95 363 -95 15 0 128 59 146 75 1 2 -35 15 -82 30 l-84 25
-7 59 c-24 210 -125 377 -298 491 -50 33 -95 60 -100 60 -4 0 -8 -28 -8 -63 0
-166 96 -357 231 -461 35 -27 68 -53 73 -57 15 -13 -131 30 -228 67 -123 47
-246 107 -246 119 0 5 7 42 15 80 43 204 -9 399 -146 548 -33 37 -65 65 -69
62 -16 -10 -40 -145 -40 -228 0 -143 46 -272 139 -386 20 -25 29 -41 21 -36
-83 48 -269 196 -354 283 l-58 60 40 68 c72 123 102 270 82 399 -13 84 -42
178 -70 223 -26 42 -35 35 -84 -51 -87 -158 -105 -328 -50 -490 17 -48 29 -87
28 -87 -2 0 -31 36 -64 80 -73 95 -144 209 -194 308 l-36 71 88 88 c135 134
192 266 192 439 0 104 -9 154 -27 154 -8 0 -49 -35 -91 -77 -123 -124 -181
-251 -191 -423 l-7 -105 -42 130 c-45 142 -68 238 -78 337 l-6 65 60 22 c196
74 355 261 387 456 3 22 9 48 12 59 4 16 1 18 -23 12 -47 -12 -165 -75 -222
-118 -76 -59 -150 -158 -189 -252 l-34 -81 5 180 c3 99 11 209 18 245 l13 64
90 13 c119 16 172 33 254 82 78 46 194 164 228 232 l22 44 -60 3 c-173 9 -372
-85 -471 -222 -15 -21 -28 -34 -28 -28 0 25 75 223 116 304 48 97 42 93 143
78 78 -11 200 2 276 31 77 29 171 93 238 163 l59 61 -32 13 c-54 22 -177 26
-260 8 -85 -18 -193 -68 -265 -122 l-48 -37 33 49 c19 27 53 75 77 106 38 50
43 63 43 110 0 29 4 70 9 91 5 20 8 37 7 37 -2 0 -32 -30 -67 -67z"/>
<path d="M8435 5060 c3 -19 9 -64 12 -99 6 -59 11 -70 74 -154 38 -50 67 -92
65 -94 -1 -2 -40 22 -87 52 -96 64 -183 94 -289 102 -73 5 -186 -9 -202 -25
-21 -21 134 -158 238 -210 93 -47 227 -64 365 -47 l55 7 46 -99 c54 -113 79
-175 102 -253 l16 -55 -22 30 c-72 101 -209 192 -329 219 -82 19 -209 28 -209
15 0 -35 97 -168 162 -221 97 -79 224 -130 356 -144 81 -7 70 8 92 -134 12
-77 26 -370 17 -370 -3 0 -15 29 -27 64 -47 141 -169 276 -314 346 -107 51
-126 56 -126 33 1 -44 34 -154 68 -222 57 -116 150 -203 284 -270 l107 -53 -5
-47 c-16 -125 -83 -384 -113 -439 -5 -8 -11 21 -14 71 -11 142 -61 267 -147
370 -49 59 -123 122 -142 122 -32 0 -33 -210 -2 -315 31 -106 83 -190 173
-278 l84 -84 -35 -72 c-56 -113 -243 -394 -255 -382 -2 1 4 19 12 39 43 104
56 256 29 367 -20 86 -103 250 -126 250 -12 0 -67 -123 -83 -185 -20 -77 -19
-212 1 -294 17 -67 60 -162 97 -215 l21 -29 -77 -73 c-126 -119 -313 -264
-341 -264 -5 0 0 10 11 23 101 112 165 304 149 446 -9 72 -36 181 -46 181 -12
0 -95 -96 -135 -156 -19 -28 -46 -87 -61 -130 -23 -66 -27 -96 -27 -184 0 -91
5 -128 29 -212 4 -13 -15 -27 -86 -63 -82 -41 -387 -151 -396 -143 -2 2 24 24
58 48 101 74 184 187 223 304 19 60 39 200 31 222 -10 25 -120 -40 -208 -124
-109 -104 -164 -214 -197 -391 l-16 -85 -85 -26 c-236 -73 -437 -219 -561
-409 -27 -40 -49 -77 -49 -82 0 -4 31 -8 69 -8 l70 0 45 63 c85 119 243 236
400 297 44 17 132 44 196 59 371 92 611 209 875 425 658 540 925 1424 669
2220 -86 267 -242 534 -429 730 -66 70 -66 70 -60 35z"/>
<path d="M4901 4857 c-16 -40 -35 -93 -40 -118 -16 -67 -13 -198 5 -260 20
-69 75 -173 118 -224 l33 -39 26 49 c64 127 73 292 24 433 -23 65 -106 214
-127 227 -4 3 -22 -28 -39 -68z"/>
<path d="M9103 4867 c-55 -82 -80 -134 -98 -204 -20 -75 -19 -219 1 -297 16
-62 51 -136 65 -136 17 0 81 92 114 162 46 102 61 193 46 293 -10 68 -60 218
-79 237 -4 4 -26 -21 -49 -55z"/>
<path d="M4695 4250 c-14 -23 -18 -209 -6 -272 21 -108 79 -213 166 -301 42
-42 81 -77 86 -77 21 0 32 61 32 170 1 122 -12 171 -69 274 -47 83 -195 229
-209 206z"/>
<path d="M9293 4183 c-123 -123 -183 -257 -183 -410 0 -80 17 -173 31 -173 5
0 45 35 88 78 151 149 208 337 165 550 -4 18 -10 32 -15 32 -4 0 -43 -35 -86
-77z"/>
<path d="M4650 3523 c0 -16 9 -66 20 -112 46 -191 159 -329 333 -405 l57 -26
0 51 c0 185 -129 379 -317 477 -44 23 -84 42 -87 42 -3 0 -6 -12 -6 -27z"/>
<path d="M9340 3508 c-99 -54 -142 -88 -194 -156 -75 -99 -109 -181 -121 -298
-9 -79 -4 -80 98 -27 177 93 284 258 310 481 3 28 1 42 -6 42 -7 0 -46 -19
-87 -42z"/>
<path d="M4785 2849 c4 -13 25 -59 47 -101 81 -158 223 -262 401 -295 48 -8
90 -13 93 -11 9 10 -36 115 -75 174 -89 139 -230 222 -425 250 -47 6 -48 6
-41 -17z"/>
<path d="M9230 2863 c-146 -25 -291 -105 -367 -204 -45 -58 -103 -173 -103
-203 0 -16 5 -18 48 -12 73 11 150 35 216 68 104 53 217 185 269 316 l17 42
-28 -1 c-15 -1 -38 -4 -52 -6z"/>
<path d="M5126 2289 c-32 -5 -61 -11 -63 -13 -19 -19 145 -175 227 -216 97
-49 170 -63 285 -57 140 8 141 9 105 62 -64 94 -199 186 -310 213 -69 16 -178
22 -244 11z"/>
<path d="M8763 2290 c-127 -23 -272 -110 -345 -206 -22 -30 -38 -57 -35 -60
12 -13 87 -24 163 -24 169 0 334 82 445 222 39 49 40 52 20 60 -35 12 -193 17
-248 8z"/>
<path d="M5640 1861 c-72 -20 -170 -60 -170 -70 0 -3 28 -25 63 -49 127 -86
262 -122 389 -103 79 13 200 54 218 76 15 18 -42 64 -135 109 -120 59 -241 71
-365 37z"/>
<path d="M8215 1873 c-80 -21 -148 -51 -206 -88 -37 -24 -70 -48 -73 -54 -8
-13 70 -53 149 -77 78 -23 202 -23 280 0 69 20 176 74 220 111 28 23 29 26 12
39 -40 31 -181 68 -272 72 -49 1 -99 0 -110 -3z"/>
<path d="M6271 1604 c-97 -26 -197 -80 -275 -150 -34 -30 -29 -36 50 -59 125
-38 282 -35 385 6 78 30 226 138 208 152 -11 10 -120 48 -159 57 -63 13 -145
11 -209 -6z"/>
<path d="M7610 1613 c-41 -6 -170 -54 -170 -63 0 -11 73 -70 135 -109 136 -86
347 -97 516 -28 l33 13 -64 52 c-139 110 -302 159 -450 135z"/>
<path d="M7180 1499 c-24 -11 -46 -22 -48 -24 -3 -2 29 -36 71 -75 41 -38 89
-93 107 -120 l32 -50 69 0 c49 0 69 4 69 13 0 45 -198 277 -235 277 -11 0 -40
-10 -65 -21z"/>
</g>
</svg>
