<?xml version="1.0" standalone="no"?>
<!DOCTYPE svg PUBLIC "-//W3C//DTD SVG 20010904//EN"
 "http://www.w3.org/TR/2001/REC-SVG-20010904/DTD/svg10.dtd">
<svg version="1.0" xmlns="http://www.w3.org/2000/svg"
 width="1408.000000pt" height="768.000000pt" viewBox="0 0 1408.000000 768.000000"
 preserveAspectRatio="xMidYMid meet">

<g transform="translate(0.000000,768.000000) scale(0.100000,-0.100000)"
fill="#000000" stroke="none">
<path d="M6965 6398 c-2 -13 -21 -131 -40 -262 -19 -132 -37 -241 -39 -243 -2
-2 -46 -8 -97 -14 -52 -6 -122 -17 -157 -25 -35 -8 -67 -14 -71 -14 -5 0 -34
44 -66 98 -47 78 -192 318 -200 330 -7 9 -125 -53 -125 -65 0 -8 21 -97 46
-196 25 -100 50 -197 54 -215 8 -32 6 -34 -28 -49 -21 -8 -83 -37 -139 -63
-102 -48 -103 -49 -103 -84 0 -20 2 -36 4 -36 3 0 45 13 93 30 89 29 228 57
313 62 l45 3 -3 -63 -4 -62 29 11 c46 17 241 57 346 70 122 15 430 7 543 -14
45 -9 120 -25 168 -36 48 -12 91 -21 96 -21 5 0 6 27 3 60 -3 33 -1 60 3 60 5
0 54 -7 109 -15 112 -16 186 -34 266 -65 74 -27 77 -27 70 17 -6 36 -11 40
-91 80 -47 23 -106 50 -132 59 -27 10 -48 23 -48 30 0 6 25 110 55 229 31 120
54 219 53 220 -10 9 -124 52 -129 49 -4 -2 -60 -93 -124 -201 -65 -109 -124
-204 -131 -212 -10 -11 -23 -11 -80 2 -38 9 -112 21 -164 27 l-96 12 -17 121
c-10 67 -27 186 -40 264 l-22 143 -72 0 c-67 0 -73 -2 -78 -22z"/>
<path d="M5572 5807 l-51 -52 53 -70 54 -69 -15 -36 c-26 -57 -52 -162 -52
-210 -1 -25 -14 -92 -31 -149 -16 -57 -34 -138 -40 -179 -17 -123 -81 -234
-181 -313 l-44 -34 24 40 c58 95 91 165 106 220 17 68 20 221 4 280 -16 62
-61 175 -70 175 -11 0 -75 -93 -108 -158 -43 -85 -93 -296 -94 -397 0 -44 8
-127 18 -184 25 -147 17 -254 -29 -396 -65 -197 -67 -247 -19 -414 34 -119 41
-284 19 -415 -9 -53 -14 -102 -10 -107 14 -24 76 -39 155 -39 l82 0 -41 -27
c-127 -86 -191 -267 -148 -416 9 -31 21 -57 26 -57 5 0 6 -15 3 -33 -7 -48 47
-180 111 -269 130 -182 136 -205 136 -573 0 -303 5 -340 66 -456 40 -75 126
-167 192 -207 92 -53 169 -74 274 -74 114 1 189 19 381 93 271 105 292 111
422 118 83 5 131 12 155 25 27 13 15 -2 -50 -63 l-85 -80 282 -1 282 0 81 55
81 55 29 -20 c15 -11 81 -41 147 -66 332 -128 418 -143 583 -97 160 44 294
171 358 339 26 68 26 73 32 404 6 385 2 367 111 517 88 122 152 271 132 308
-8 13 -6 22 7 35 20 20 40 101 40 161 0 97 -76 237 -162 299 l-41 30 82 0 c50
0 96 6 118 15 l35 15 -5 57 c-3 32 -11 90 -17 128 -17 97 -8 209 30 354 43
164 40 235 -18 406 -55 163 -59 216 -32 395 27 176 24 250 -19 414 -32 120
-87 242 -138 300 -25 29 -26 29 -40 11 -23 -32 -61 -166 -68 -241 -14 -136 20
-260 109 -399 37 -57 37 -57 9 -37 -106 76 -176 196 -203 349 -11 58 -28 132
-39 166 -11 34 -25 106 -31 160 -9 83 -20 128 -54 207 -4 10 9 36 35 70 64 87
64 81 5 139 l-53 53 -60 -51 -60 -50 -36 25 c-42 28 -40 30 -57 -81 -21 -133
7 -249 82 -343 64 -79 78 -101 105 -163 20 -46 19 -45 -81 56 -109 111 -202
176 -309 219 -75 30 -185 60 -261 71 l-49 7 7 -71 c5 -46 4 -71 -3 -71 -6 0
-34 9 -62 21 -161 63 -398 102 -624 102 -230 0 -425 -31 -619 -99 -38 -13 -71
-24 -74 -24 -2 0 -2 29 -1 64 2 36 1 67 -2 70 -3 3 -41 -1 -85 -8 -231 -41
-414 -145 -567 -321 -97 -113 -43 11 63 144 49 62 62 86 75 142 8 37 15 94 15
125 0 60 -18 184 -27 184 -3 0 -19 -11 -35 -25 l-30 -25 -63 50 c-34 27 -65
50 -67 50 -2 0 -27 -24 -56 -53z m703 -369 c-32 -145 -130 -281 -256 -356 -52
-30 -254 -91 -265 -79 -8 8 50 149 79 192 76 112 190 195 345 250 94 34 105
33 97 -7z m1675 -9 c150 -58 268 -159 327 -282 37 -75 59 -135 52 -141 -3 -3
-38 2 -79 10 -208 41 -367 181 -424 373 -23 79 -22 84 17 76 17 -4 66 -20 107
-36z m-1020 -46 c0 -182 -136 -402 -295 -479 -53 -26 -70 -29 -150 -28 -75 1
-109 7 -205 38 -63 21 -119 42 -124 47 -6 5 2 17 20 30 69 53 143 141 185 222
l43 85 101 31 c121 37 209 58 301 70 121 15 124 15 124 -16z m341 16 c91 -12
198 -36 327 -75 l82 -25 41 -82 c33 -64 60 -101 129 -169 l88 -87 -52 -20
c-134 -50 -202 -65 -286 -65 -71 -1 -94 4 -142 26 -32 15 -74 39 -94 54 -50
39 -116 127 -152 206 -27 59 -62 189 -62 233 0 18 11 18 121 4z m-191 -431
c29 -54 135 -164 204 -211 63 -42 213 -116 340 -167 274 -109 437 -246 514
-433 53 -129 55 -124 -38 -77 -44 22 -125 53 -178 68 -88 25 -112 27 -262 26
-146 0 -176 -3 -264 -27 -111 -30 -195 -72 -213 -108 -9 -18 -13 -112 -13
-356 l0 -333 70 0 70 0 0 225 c0 131 4 225 9 225 5 0 46 -18 91 -40 208 -100
406 -91 556 26 65 50 84 53 184 26 l65 -18 -1 -150 c-2 -126 -5 -158 -21 -195
-12 -27 -69 -96 -145 -177 -71 -74 -134 -151 -145 -175 -21 -46 -50 -153 -148
-567 -37 -151 -75 -288 -85 -305 -10 -16 -52 -57 -92 -90 -210 -174 -256 -193
-488 -202 -179 -7 -271 6 -365 51 -114 54 -301 206 -323 263 -10 25 -44 160
-163 653 -22 91 -49 182 -60 204 -11 21 -70 92 -131 156 -61 65 -124 137 -139
159 -31 47 -42 115 -43 275 l-1 99 65 18 c100 28 115 25 204 -36 62 -43 94
-58 154 -71 139 -31 288 -4 434 80 41 23 82 55 95 74 20 30 83 183 83 201 0
15 -135 70 -225 93 -76 18 -117 22 -260 22 -164 0 -174 -1 -275 -33 -58 -18
-133 -48 -167 -67 -34 -19 -64 -34 -67 -34 -9 0 40 125 71 182 36 66 142 180
212 227 69 47 178 102 337 170 280 119 407 216 497 382 20 36 21 36 57 -33z
m-1070 -133 c46 -14 104 -35 235 -85 18 -6 17 -9 -15 -29 -50 -30 -154 -61
-230 -68 -36 -3 -114 -19 -175 -36 -98 -29 -123 -32 -235 -31 -79 0 -141 6
-168 15 l-43 14 27 35 c68 86 213 179 314 200 63 13 224 5 290 -15z m2414 -3
c81 -29 176 -94 237 -160 58 -64 58 -64 -48 -82 -102 -18 -226 -8 -352 29 -57
17 -121 31 -142 31 -61 0 -173 27 -233 57 -31 15 -56 30 -56 34 0 10 226 92
293 106 87 17 228 10 301 -15z m-2634 -408 c0 -15 -84 -125 -127 -165 -116
-110 -291 -171 -444 -155 -94 9 -95 10 -46 79 82 117 208 199 353 231 66 14
264 22 264 10z m2810 -22 c96 -28 161 -65 228 -127 60 -55 130 -150 119 -161
-3 -3 -52 -7 -109 -7 -169 -3 -285 38 -412 145 -42 36 -126 149 -126 171 0 17
226 1 300 -21z m-2940 -399 c0 -96 -29 -227 -66 -301 -62 -127 -196 -245 -343
-302 l-54 -21 7 23 c41 140 47 297 17 423 -11 44 -22 87 -26 96 -5 14 9 17
112 22 127 5 225 30 298 73 22 13 43 24 48 24 4 0 7 -17 7 -37z m2842 2 c87
-41 199 -65 309 -65 43 0 79 -2 79 -5 0 -3 -10 -43 -22 -88 -28 -103 -30 -276
-4 -381 9 -38 14 -71 11 -74 -2 -3 -34 7 -70 23 -207 87 -336 248 -364 452
-16 111 -22 173 -17 173 2 0 37 -16 78 -35z m133 -724 c55 -33 119 -76 142
-96 58 -49 94 -128 101 -215 2 -39 2 -70 -1 -70 -16 0 -139 51 -207 85 -79 40
-236 143 -263 173 -13 15 -14 30 -1 137 7 66 13 128 14 137 0 13 16 3 58 -37
31 -30 102 -81 157 -114z m-2959 42 c21 -169 26 -152 -74 -226 -89 -65 -175
-113 -287 -160 -111 -46 -105 -47 -105 21 0 131 53 205 223 311 62 39 137 92
167 120 30 27 57 47 59 46 2 -2 9 -53 17 -112z m99 -500 c45 -141 94 -250 163
-361 135 -218 346 -439 630 -662 l83 -65 254 -5 254 -5 -96 -80 c-203 -171
-210 -175 -284 -175 -103 0 -170 -17 -379 -95 -281 -106 -317 -116 -400 -122
-214 -15 -397 109 -478 323 -25 68 -26 74 -31 404 l-6 335 -27 55 c-15 30 -50
87 -79 125 -49 67 -109 178 -109 201 0 6 28 21 61 34 86 31 284 132 344 174
27 20 53 36 56 36 3 0 23 -53 44 -117z m2652 71 c69 -48 224 -125 331 -165 34
-13 62 -27 62 -32 0 -18 -58 -119 -126 -219 -40 -59 -78 -124 -85 -145 -8 -25
-14 -154 -18 -373 -6 -310 -8 -339 -28 -387 -66 -165 -197 -280 -355 -314 -72
-16 -179 -6 -270 25 -135 45 -269 99 -266 106 2 6 150 130 205 172 7 6 47 -2
107 -21 115 -37 155 -38 221 -7 59 27 77 46 104 106 19 42 21 65 21 349 l0
305 -32 -45 c-197 -277 -414 -487 -826 -798 l-133 -101 -179 0 c-99 0 -180 2
-180 4 0 8 221 194 381 321 511 404 727 636 865 930 47 100 98 240 108 298 4
20 11 37 16 37 6 0 40 -21 77 -46z m-1437 -1428 c0 -2 -8 -10 -17 -17 -16 -13
-17 -12 -4 4 13 16 21 21 21 13z"/>
<path d="M6714 3136 c-8 -32 1 -70 21 -90 9 -8 46 -24 83 -35 40 -12 89 -37
121 -61 73 -55 116 -55 197 0 32 22 92 50 132 62 84 25 102 43 102 107 l0 44
-77 -5 c-64 -4 -92 -12 -153 -42 -89 -44 -124 -43 -210 6 -45 25 -69 32 -132
36 -76 4 -77 4 -84 -22z"/>
<path d="M6770 2757 c-63 -29 -128 -57 -145 -63 -26 -8 -30 -15 -33 -50 l-3
-41 43 7 c24 4 89 15 145 25 98 18 106 18 184 1 77 -16 84 -16 155 0 80 19 98
18 302 -20 l72 -13 0 43 c0 39 -3 44 -27 50 -16 3 -76 28 -135 55 -141 65
-153 67 -216 35 -64 -32 -81 -32 -140 -1 -26 14 -56 25 -67 25 -11 -1 -72 -24
-135 -53z"/>
<path d="M6774 2443 c17 -118 37 -132 186 -124 58 3 141 3 185 -1 54 -4 88 -3
105 5 33 16 60 72 60 125 0 40 -2 43 -22 36 -61 -19 -105 -24 -254 -24 -114 0
-175 4 -210 15 -27 8 -51 15 -53 15 -2 0 0 -21 3 -47z"/>
<path d="M5750 2002 c0 -317 4 -346 60 -414 58 -71 151 -94 250 -64 61 19 194
69 254 96 l50 23 -25 21 c-134 111 -209 179 -285 258 -92 96 -232 265 -273
331 -12 20 -25 37 -27 37 -2 0 -4 -130 -4 -288z"/>
<path d="M4907 4873 c-53 -118 -70 -251 -46 -365 15 -72 79 -204 122 -253 l35
-40 26 55 c56 123 71 263 40 384 -18 70 -81 196 -122 245 l-28 34 -27 -60z"/>
<path d="M9109 4878 c-103 -142 -144 -308 -115 -461 15 -78 62 -197 77 -197
16 0 88 113 118 185 39 92 52 180 41 277 -9 76 -64 238 -81 238 -5 0 -23 -19
-40 -42z"/>
<path d="M9199 4093 c-119 -126 -177 -252 -186 -408 -5 -86 7 -183 26 -214 23
-37 167 130 223 259 31 72 33 80 32 195 -1 91 -6 133 -21 173 l-19 53 -55 -58z"/>
<path d="M4811 4103 c-7 -21 -15 -90 -18 -154 -4 -95 -2 -127 12 -170 25 -75
56 -135 104 -199 38 -50 114 -120 131 -120 14 0 35 127 33 205 -2 143 -65 291
-176 420 -27 30 -54 55 -61 55 -7 0 -18 -17 -25 -37z"/>
</g>
</svg>
