<?xml version="1.0" standalone="no"?>
<!DOCTYPE svg PUBLIC "-//W3C//DTD SVG 20010904//EN"
 "http://www.w3.org/TR/2001/REC-SVG-20010904/DTD/svg10.dtd">
<svg version="1.0" xmlns="http://www.w3.org/2000/svg"
 width="1408.000000pt" height="768.000000pt" viewBox="0 0 1408.000000 768.000000"
 preserveAspectRatio="xMidYMid meet">

<g transform="translate(0.000000,768.000000) scale(0.100000,-0.100000)"
fill="#000000" stroke="none">
<path d="M0 3840 l0 -3840 7040 0 7040 0 0 3840 0 3840 -7040 0 -7040 0 0
-3840z m7155 2320 l40 -265 45 -7 c25 -4 90 -14 145 -23 55 -9 110 -18 121
-21 19 -5 37 20 143 198 66 112 125 210 130 218 9 13 42 3 139 -46 1 0 -22
-98 -53 -216 -30 -118 -55 -222 -55 -230 0 -9 19 -23 48 -33 26 -10 86 -36
135 -58 l87 -40 0 -39 c0 -28 -4 -38 -12 -34 -73 29 -214 68 -300 80 -149 22
-138 26 -138 -44 0 -33 -2 -60 -5 -60 -3 0 -37 9 -77 20 -161 44 -305 62 -498
62 -205 1 -291 -9 -470 -52 -67 -17 -124 -30 -127 -30 -3 0 -2 28 1 61 l7 62
-63 -7 c-104 -12 -259 -46 -324 -72 -33 -13 -64 -24 -68 -24 -4 0 -6 17 -4 38
3 34 7 39 58 64 30 15 90 42 133 60 51 21 77 37 77 48 0 9 -25 112 -55 230
-30 118 -53 215 -52 216 10 6 121 54 127 54 4 0 62 -91 129 -202 66 -112 124
-209 129 -216 7 -11 28 -9 108 7 54 11 129 23 167 26 37 4 67 12 67 18 0 13
68 460 76 500 6 28 6 28 77 25 l71 -3 41 -265z m-1461 -349 l62 -50 30 24 c16
13 32 24 35 25 10 0 29 -119 29 -181 0 -30 -7 -84 -15 -121 -12 -59 -22 -78
-75 -140 -66 -79 -104 -141 -139 -230 -13 -32 -27 -58 -31 -58 -9 0 -17 74
-26 230 -6 106 7 182 46 276 13 30 11 34 -32 90 -68 90 -68 82 -7 135 30 27
56 49 58 49 2 0 31 -22 65 -49z m2866 -52 c0 -3 -22 -37 -50 -75 -27 -38 -50
-71 -50 -75 0 -3 7 -20 16 -38 44 -88 55 -232 31 -414 l-12 -88 -52 108 c-28
59 -73 134 -100 167 -26 32 -56 68 -66 80 -10 12 -25 59 -34 105 -14 72 -15
97 -5 179 7 53 14 98 17 100 2 3 19 -7 38 -21 l33 -25 63 49 63 49 54 -47 c30
-26 54 -50 54 -54z m-2295 -356 c-62 -214 -234 -357 -479 -398 -38 -6 -38 -6
-32 22 4 15 25 66 48 112 56 115 143 203 260 261 91 45 211 83 216 69 2 -5 -4
-35 -13 -66z m1691 26 c102 -43 181 -96 241 -164 52 -58 118 -178 130 -236 l6
-30 -39 6 c-137 23 -255 80 -337 162 -59 59 -118 159 -137 233 -6 25 -13 52
-16 62 -4 14 0 15 37 7 24 -6 75 -24 115 -40z m-2586 -107 c25 -67 34 -109 37
-182 7 -119 -7 -189 -58 -288 -36 -70 -95 -150 -104 -140 -3 2 -15 29 -29 60
-28 62 -56 187 -56 245 0 58 27 169 55 230 27 61 106 173 117 167 3 -2 21 -43
38 -92z m1556 23 c-12 -119 -66 -239 -150 -332 -60 -67 -127 -109 -206 -129
-85 -21 -152 -13 -310 38 l-125 41 35 25 c75 56 148 142 191 227 l44 85 76 24
c152 49 317 83 413 85 l39 1 -7 -65z m468 34 c54 -11 141 -33 192 -50 l94 -30
38 -77 c29 -60 57 -97 128 -169 l92 -92 -52 -20 c-134 -50 -202 -65 -286 -66
-75 0 -93 4 -153 33 -94 44 -173 126 -226 234 -38 77 -70 190 -71 247 0 23 1
24 73 17 39 -4 116 -16 171 -27z m1396 -6 c45 -54 107 -187 121 -261 21 -110
-4 -271 -58 -377 l-16 -29 -39 43 c-101 114 -148 301 -117 467 12 64 59 194
70 194 4 0 22 -17 39 -37z m-1700 -414 c55 -87 146 -174 240 -230 39 -23 152
-77 250 -119 98 -42 213 -97 256 -121 100 -57 227 -181 272 -266 26 -49 72
-164 72 -179 0 -1 -42 17 -92 41 -155 73 -235 90 -428 89 -137 0 -179 -4 -250
-22 -106 -27 -210 -79 -227 -112 -9 -19 -13 -110 -13 -357 l0 -333 70 0 70 0
0 225 c0 190 2 225 15 225 8 0 47 -18 88 -39 188 -99 399 -92 544 18 81 62 78
61 176 38 l87 -22 0 -95 c-1 -118 -15 -231 -34 -267 -8 -16 -71 -89 -141 -163
-70 -74 -136 -153 -146 -175 -9 -22 -61 -220 -114 -440 -54 -219 -102 -409
-107 -421 -23 -50 -259 -232 -342 -263 -78 -29 -164 -41 -291 -41 -144 0 -235
14 -309 48 -100 44 -301 204 -330 261 -7 14 -51 179 -96 366 -45 187 -91 375
-102 418 -23 89 -40 113 -197 280 -56 60 -108 121 -116 137 -17 33 -35 174
-35 281 l0 75 83 20 c45 10 90 18 100 17 10 -2 41 -20 70 -42 133 -99 257
-123 421 -81 89 23 248 101 275 137 11 13 33 59 49 101 49 129 51 115 -25 150
-128 59 -227 77 -418 76 -155 0 -178 -3 -260 -27 -49 -15 -124 -44 -165 -65
-41 -20 -78 -38 -82 -40 -13 -6 30 106 69 180 78 149 223 260 482 369 239 100
334 154 426 240 47 45 95 102 115 138 19 33 37 60 40 60 3 0 25 -31 50 -70z
m-2060 -170 c82 -158 92 -322 29 -478 -19 -47 -38 -86 -44 -87 -29 -8 -133
185 -154 284 -24 116 -8 251 44 368 l27 59 29 -35 c16 -19 47 -69 69 -111z
m4185 -31 c31 -132 15 -269 -46 -391 -34 -67 -88 -147 -99 -147 -12 0 -59 113
-74 180 -38 159 3 334 112 484 l35 48 29 -56 c15 -30 35 -84 43 -118z m-3254
88 c37 -8 119 -34 184 -57 116 -43 116 -43 93 -61 -40 -31 -160 -68 -253 -78
-50 -5 -129 -21 -175 -36 -112 -34 -248 -42 -349 -20 -41 8 -76 18 -79 21 -3
2 12 25 32 50 41 50 143 126 202 152 101 43 227 54 345 29z m2424 -2 c88 -22
181 -79 260 -157 l70 -70 -45 -15 c-65 -22 -287 -21 -360 1 -87 27 -168 44
-260 56 -60 8 -106 21 -160 47 l-75 35 120 46 c66 25 147 51 180 58 82 18 199
18 270 -1z m-2595 -420 c0 -3 -16 -30 -36 -59 -75 -114 -205 -207 -335 -242
-73 -19 -263 -23 -279 -7 -14 14 58 113 126 173 61 54 167 105 259 125 68 14
265 22 265 10z m2758 -10 c109 -22 211 -72 282 -140 60 -57 127 -150 117 -160
-3 -4 -54 -6 -114 -6 -165 -1 -258 29 -377 120 -56 43 -156 164 -156 190 0 18
152 16 248 -4z m-3649 -331 c72 -79 134 -194 156 -284 25 -110 14 -339 -17
-339 -6 0 -43 33 -82 73 -118 119 -166 235 -166 394 0 91 24 223 40 223 5 0
36 -30 69 -67z m4377 5 c12 -44 18 -95 18 -168 0 -92 -4 -114 -29 -175 -28
-70 -75 -148 -118 -195 -44 -48 -100 -91 -107 -83 -5 4 -13 35 -19 67 -35 193
18 379 153 539 37 42 70 77 75 77 5 0 17 -28 27 -62z m-3620 -125 c-15 -194
-58 -296 -171 -408 -73 -73 -143 -120 -234 -155 l-54 -21 7 23 c41 149 44 324
7 455 -12 40 -21 75 -21 78 0 3 36 5 79 5 117 0 224 24 311 68 41 22 77 40 79
40 2 1 1 -37 -3 -85z m2996 -8 c42 -8 115 -15 161 -15 l84 0 -22 -77 c-33
-114 -39 -210 -21 -328 9 -55 18 -110 22 -122 9 -34 -11 -30 -115 23 -67 33
-109 63 -159 112 -111 111 -158 226 -177 434 l-5 66 77 -39 c44 -22 112 -45
155 -54z m-2972 -670 l13 -118 -34 -29 c-73 -61 -193 -132 -309 -184 -67 -30
-125 -54 -130 -54 -29 0 -19 122 17 198 25 53 99 121 179 165 89 49 196 129
220 164 l18 28 6 -26 c4 -13 13 -78 20 -144z m2966 -9 c111 -62 175 -121 204
-189 24 -55 40 -187 23 -187 -41 0 -275 116 -373 185 -118 83 -112 70 -95 216
8 68 15 130 15 137 0 8 31 -15 69 -50 37 -34 108 -85 157 -112z m-2786 -675
c131 -260 354 -515 682 -780 l113 -91 255 0 255 0 -44 -38 c-25 -20 -96 -79
-160 -129 l-114 -93 -71 0 c-100 0 -182 -20 -352 -85 -280 -107 -343 -127
-424 -132 -47 -4 -99 -1 -131 7 -181 43 -325 192 -365 379 -10 48 -14 145 -14
348 0 338 -3 352 -104 497 -62 90 -116 187 -116 212 0 6 33 23 73 39 101 39
252 117 327 169 l64 45 46 -142 c26 -78 62 -171 80 -206z m2552 305 c85 -59
194 -116 308 -162 52 -21 97 -39 99 -40 9 -7 -56 -126 -115 -210 -113 -164
-108 -137 -114 -529 -7 -361 -7 -360 -60 -466 -28 -55 -120 -151 -174 -183
-107 -63 -241 -82 -356 -52 -30 8 -120 38 -199 68 l-143 53 33 28 c19 16 71
58 116 93 l82 65 98 -31 c77 -25 108 -31 147 -26 73 8 134 50 168 115 l28 53
0 306 0 306 -32 -45 c-105 -146 -158 -209 -293 -345 -142 -142 -396 -356 -593
-497 l-80 -57 -182 2 -183 3 199 162 c109 89 267 217 349 283 343 277 542 495
678 740 46 83 109 244 133 338 10 39 19 72 21 72 1 0 30 -20 65 -44z m5133
-2163 c23 -60 96 -133 157 -158 27 -11 48 -23 48 -26 0 -4 -21 -14 -47 -24
-60 -23 -133 -96 -158 -157 -11 -27 -23 -48 -26 -48 -4 0 -14 21 -24 47 -23
60 -96 133 -157 158 -27 11 -48 23 -48 26 0 4 21 14 47 24 60 23 133 96 158
157 11 27 23 48 26 48 4 0 14 -21 24 -47z"/>
<path d="M6714 3135 c-8 -31 1 -69 21 -89 9 -8 46 -24 83 -35 40 -12 89 -37
121 -61 66 -49 118 -54 172 -15 57 41 102 63 164 79 73 19 95 42 95 102 l0 44
-67 0 c-58 0 -80 -6 -153 -40 -47 -22 -96 -40 -110 -40 -14 0 -63 18 -110 40
-70 33 -96 40 -147 40 -58 0 -63 -2 -69 -25z"/>
<path d="M6790 2765 c-52 -25 -119 -53 -147 -62 -53 -17 -53 -17 -53 -58 l0
-42 146 25 c145 26 147 26 233 9 78 -16 91 -16 141 -2 72 20 105 19 230 -5
149 -28 150 -28 150 19 0 38 -1 40 -47 54 -27 8 -93 36 -148 61 -55 25 -108
46 -118 46 -10 0 -45 -14 -77 -30 l-60 -30 -58 30 c-31 16 -66 30 -77 30 -11
-1 -63 -21 -115 -45z"/>
<path d="M6774 2443 c16 -115 41 -134 161 -122 44 5 125 6 180 2 55 -4 109 -6
120 -4 30 4 51 27 63 70 11 33 17 101 10 101 -2 0 -25 -7 -52 -15 -35 -11 -97
-15 -216 -15 -119 0 -181 4 -216 15 -27 8 -51 15 -53 15 -2 0 0 -21 3 -47z"/>
<path d="M5752 1985 c3 -295 4 -312 25 -350 59 -110 156 -147 284 -109 64 19
281 103 292 113 4 4 -23 31 -59 60 -159 127 -368 350 -482 511 -25 36 -49 70
-54 75 -5 6 -8 -121 -6 -300z"/>
</g>
</svg>
