<?xml version="1.0" standalone="no"?>
<!DOCTYPE svg PUBLIC "-//W3C//DTD SVG 20010904//EN"
 "http://www.w3.org/TR/2001/REC-SVG-20010904/DTD/svg10.dtd">
<svg version="1.0" xmlns="http://www.w3.org/2000/svg"
 width="1408.000000pt" height="768.000000pt" viewBox="0 0 1408.000000 768.000000"
 preserveAspectRatio="xMidYMid meet">

<g transform="translate(0.000000,768.000000) scale(0.100000,-0.100000)"
fill="#000000" stroke="none">
<path d="M0 3840 l0 -3840 7040 0 7040 0 0 3840 0 3840 -7040 0 -7040 0 0
-3840z m7155 2320 l40 -264 40 -7 c22 -4 87 -14 145 -24 58 -9 115 -19 126
-22 18 -4 38 24 150 211 71 119 132 216 136 216 5 0 35 -13 67 -29 l58 -30
-64 -263 c-35 -145 -66 -274 -69 -287 -4 -21 -9 -23 -42 -17 -20 4 -54 10 -74
13 l-38 6 0 -62 c0 -64 -3 -67 -44 -52 -61 24 -276 62 -405 72 -213 16 -513
-14 -664 -67 -66 -23 -69 -21 -66 43 3 68 -2 71 -86 49 -42 -11 -57 -11 -60
-3 -2 7 -34 131 -70 277 -36 146 -68 272 -70 281 -4 11 12 22 60 42 36 15 67
27 69 27 2 0 61 -97 131 -215 71 -118 132 -215 136 -215 4 0 36 6 71 14 35 8
106 20 159 26 l95 12 17 107 c9 58 25 169 37 246 31 208 19 186 102 183 l72
-3 41 -265z m-1321 -372 c4 -13 10 -68 13 -123 10 -180 -40 -308 -174 -442
-45 -46 -86 -83 -91 -83 -10 0 -32 128 -32 189 0 73 20 147 65 238 36 72 61
107 121 167 42 42 80 76 84 76 4 0 11 -10 14 -22z m2515 -55 c133 -136 188
-273 177 -443 -3 -52 -9 -107 -13 -122 l-8 -27 -53 41 c-105 82 -190 224 -213
353 -16 93 0 275 24 275 5 0 44 -35 86 -77z m-943 -237 c67 -14 149 -36 183
-48 60 -22 64 -25 81 -73 10 -27 21 -59 26 -69 6 -16 4 -18 -12 -14 -10 3 -74
22 -141 41 -68 20 -171 44 -230 53 -143 24 -409 24 -548 0 -101 -17 -276 -64
-342 -91 -42 -18 -49 -15 -33 15 6 12 18 44 26 70 l15 49 77 25 c187 58 326
76 572 71 172 -3 225 -8 326 -29z m544 -64 c95 -37 181 -95 244 -163 55 -60
120 -176 132 -238 l7 -32 -39 6 c-179 30 -338 128 -410 252 -33 56 -74 165
-74 198 0 22 2 23 38 13 20 -6 66 -22 102 -36z m-1677 6 c-19 -101 -92 -229
-166 -294 -57 -49 -164 -102 -255 -125 -100 -25 -104 -25 -96 9 13 53 71 168
112 219 23 28 71 73 108 99 72 51 232 123 276 124 26 0 27 -2 21 -32z m-898
-131 c55 -163 45 -320 -29 -464 -30 -57 -86 -133 -99 -133 -11 0 -60 129 -73
192 -34 158 3 312 110 460 49 68 50 67 91 -55z m3424 53 c135 -192 157 -394
65 -594 l-27 -60 -38 44 c-109 126 -154 319 -113 490 12 53 61 180 69 180 1 0
21 -27 44 -60z m-3143 -279 c-4 -5 -10 -48 -15 -95 -8 -83 -10 -88 -63 -158
-31 -40 -64 -86 -74 -103 l-19 -30 45 36 c109 89 242 139 366 139 81 0 194
-18 194 -32 0 -5 -33 -42 -74 -82 -131 -128 -274 -183 -451 -173 -55 3 -109 8
-120 12 -18 5 -27 -7 -73 -102 -40 -83 -112 -269 -112 -290 0 -1 35 33 78 76
114 115 217 158 415 176 81 7 83 2 28 -82 -52 -81 -140 -166 -216 -208 -70
-39 -195 -75 -264 -75 -25 0 -52 -4 -60 -9 -23 -15 -41 -143 -46 -326 l-5
-170 20 53 c57 156 170 281 319 355 51 26 102 47 112 47 17 0 19 -5 13 -37
-13 -73 -46 -168 -77 -223 -63 -112 -194 -223 -321 -271 l-58 -23 6 -55 c11
-94 47 -252 78 -346 42 -126 47 -132 48 -49 0 106 17 180 62 274 33 68 57 101
123 168 45 45 89 82 98 82 20 0 28 -50 28 -161 0 -170 -58 -300 -193 -431
l-90 -88 47 -87 c52 -98 177 -289 224 -343 l31 -35 -20 48 c-52 125 -60 268
-23 397 16 57 70 167 101 208 l18 24 31 -59 c104 -195 92 -436 -29 -626 l-31
-48 64 -65 c70 -71 236 -206 313 -255 l49 -30 -30 38 c-97 122 -145 252 -144
392 0 89 21 205 40 224 11 11 123 -111 160 -176 65 -113 89 -298 56 -432 -8
-33 -14 -66 -15 -72 0 -20 193 -112 325 -155 61 -20 155 -45 155 -42 0 2 -25
20 -56 40 -139 93 -239 274 -251 457 l-6 89 44 -22 c207 -105 337 -295 365
-537 l7 -51 61 -17 c121 -34 119 -31 42 -77 l-68 -41 -107 23 c-616 132 -1132
532 -1420 1100 -113 222 -174 412 -207 646 -20 142 -22 407 -5 544 44 339 185
681 394 950 73 94 168 200 179 200 5 0 7 -4 4 -9z m2900 -124 c320 -381 482
-856 460 -1347 -13 -316 -72 -550 -206 -826 -146 -302 -364 -567 -627 -765
-120 -91 -202 -140 -348 -210 -151 -72 -235 -101 -408 -145 -76 -19 -176 -48
-221 -65 -169 -61 -322 -170 -415 -295 l-46 -63 -74 -1 c-85 0 -84 -3 -20 91
125 185 317 324 552 399 l93 30 17 101 c37 221 158 388 350 485 52 27 51 30
47 -60 -6 -158 -96 -335 -221 -431 -28 -22 -61 -48 -73 -57 -17 -14 -7 -13 61
6 102 29 172 56 288 110 138 64 127 53 109 111 -8 28 -18 93 -21 145 -7 114
18 229 68 316 39 68 150 197 160 187 19 -19 42 -144 42 -228 0 -148 -46 -277
-141 -394 l-37 -45 33 20 c104 60 392 306 392 334 0 4 -18 39 -40 76 -110 187
-115 417 -13 607 15 26 29 47 32 47 9 -1 70 -108 96 -170 54 -128 58 -269 11
-415 l-25 -80 31 35 c75 86 258 388 258 426 0 5 -16 20 -35 33 -103 70 -207
229 -234 359 -19 92 -12 292 11 292 5 0 49 -39 97 -87 136 -135 190 -261 191
-443 0 -60 3 -80 10 -68 36 61 120 399 120 479 0 33 -3 35 -97 79 -170 78
-296 227 -337 398 -28 115 -28 112 -7 112 57 0 214 -93 295 -175 56 -58 145
-213 147 -259 1 -14 4 -9 10 14 11 43 4 187 -18 342 l-16 117 -56 6 c-228 24
-381 112 -493 284 -26 40 -48 78 -48 83 0 11 111 3 200 -14 69 -13 188 -67
242 -109 22 -18 58 -55 80 -83 l41 -51 -8 35 c-10 49 -88 238 -125 304 l-31
55 -118 -6 c-144 -7 -222 9 -332 69 -69 39 -209 162 -209 186 0 18 33 24 140
29 164 8 297 -36 411 -136 62 -54 54 -35 -35 83 -61 80 -63 86 -69 157 -4 41
-10 85 -13 99 l-7 25 28 -25 c15 -14 61 -65 101 -113z m-3521 -182 c62 -128
80 -252 54 -377 -13 -59 -63 -178 -76 -178 -28 2 -123 175 -149 272 -29 110
-13 263 41 384 l27 59 29 -35 c16 -19 49 -75 74 -125z m4180 -20 c20 -77 19
-207 -1 -276 -26 -88 -121 -259 -144 -259 -3 0 -14 17 -24 38 -58 119 -77 243
-56 358 14 78 71 207 121 274 l33 45 27 -60 c16 -33 35 -87 44 -120z m-4400
-596 c34 -35 71 -80 83 -100 40 -65 73 -169 79 -248 5 -75 -9 -187 -26 -204
-15 -15 -127 89 -176 163 -27 40 -59 106 -72 148 -22 68 -24 91 -21 197 2 66
7 126 12 133 10 17 44 -8 121 -89z m4582 54 c24 -148 -3 -303 -72 -418 -56
-93 -183 -213 -199 -187 -3 5 -9 44 -15 88 -17 136 13 271 86 381 33 50 166
183 184 183 4 0 11 -21 16 -47z m-4627 -716 c138 -77 237 -204 275 -352 16
-65 20 -155 6 -155 -19 0 -109 45 -161 80 -132 89 -218 242 -236 416 l-7 66
24 -7 c13 -4 58 -26 99 -48z m4660 15 c0 -103 -73 -285 -143 -361 -48 -50
-130 -109 -200 -142 l-62 -29 -3 40 c-5 62 15 149 53 229 48 100 159 211 265
263 41 21 78 38 83 38 4 0 7 -17 7 -38z m-4480 -672 c174 -52 336 -212 376
-374 l7 -29 -58 8 c-162 20 -293 92 -388 214 -42 54 -107 176 -107 201 0 16
79 7 170 -20z m4349 3 c-56 -148 -168 -278 -291 -337 -67 -32 -189 -66 -239
-66 -26 0 -18 32 29 125 50 98 145 191 242 238 71 34 181 64 242 66 26 1 27
-1 17 -26z m-3899 -573 c62 -21 158 -74 201 -112 15 -13 46 -47 69 -77 51 -68
47 -71 -94 -78 -173 -9 -293 37 -424 161 -75 71 -99 103 -87 114 26 27 248 21
335 -8z m3612 11 c22 -8 19 -13 -67 -98 -142 -142 -266 -192 -445 -179 -47 3
-95 8 -107 12 l-22 6 29 43 c72 104 202 191 333 221 65 15 234 12 279 -5z
m-3130 -412 c72 -15 185 -68 231 -108 20 -18 37 -36 37 -40 0 -7 -62 -35 -140
-63 -72 -26 -213 -27 -295 -3 -90 26 -245 111 -245 134 0 12 109 59 176 75 73
18 166 20 236 5z m2568 -10 c41 -11 96 -30 122 -41 58 -25 55 -31 -43 -89
-109 -65 -188 -89 -300 -89 -103 0 -170 15 -253 57 l-48 25 27 28 c35 37 146
95 216 114 79 22 191 20 279 -5z m-1960 -249 c58 -13 150 -50 150 -60 0 -17
-93 -89 -158 -123 -109 -57 -247 -74 -377 -47 -72 15 -135 39 -135 51 0 14
129 106 187 134 102 49 233 67 333 45z m1382 -24 c118 -44 255 -142 233 -165
-6 -6 -46 -20 -89 -31 -139 -35 -303 -22 -410 32 -64 33 -166 112 -166 129 0
8 91 45 145 59 69 16 212 5 287 -24z m-552 -123 c60 -62 142 -171 156 -208 5
-13 -6 -15 -67 -15 l-74 1 -34 50 c-19 28 -66 80 -105 115 -38 35 -67 66 -64
69 8 9 102 54 113 54 5 1 39 -29 75 -66z m6225 -720 c23 -60 96 -133 157 -158
27 -11 48 -23 48 -26 0 -4 -21 -14 -47 -24 -60 -23 -133 -96 -158 -157 -11
-27 -23 -48 -26 -48 -4 0 -14 20 -23 43 -24 65 -76 119 -144 152 -34 17 -61
33 -61 36 -1 4 20 14 46 24 60 23 133 96 158 157 11 27 23 48 26 48 4 0 14
-21 24 -47z"/>
</g>
</svg>
